<svg xmlns="http://www.w3.org/2000/svg" width="13.018" height="13.021" viewBox="-33.612 41.24 13.018 13.021" enable-background="new -33.612 41.24 13.018 13.021"><path d="M-22.096 46.748h-1.133c.084.32.133.654.133 1.002 0 2.214-1.794 4.007-4.006 4.007-2.21 0-4.006-1.793-4.006-4.007 0-.348.05-.682.134-1.002h-1.134v5.51c0 .274.226.5.5.5h9.013c.278 0 .502-.226.502-.5v-5.51zm0-3.505c0-.275-.224-.5-.502-.5h-1.5c-.277 0-.5.225-.5.5v1.503c0 .275.223.5.5.5h1.5c.278 0 .502-.225.502-.5v-1.503zm-5.007 2.004c-1.383 0-2.503 1.12-2.503 2.503s1.12 2.503 2.503 2.503 2.504-1.12 2.504-2.503c0-1.384-1.12-2.503-2.503-2.503m5.007 9.013H-32.11c-.83 0-1.502-.674-1.502-1.504V42.743c0-.83.673-1.503 1.5-1.503h10.016c.83 0 1.502.674 1.502 1.503v10.014c0 .83-.672 1.503-1.502 1.503"/></svg>