<svg xmlns="http://www.w3.org/2000/svg" width="13.611" height="11.062" viewBox="-33.611 -30.931 13.611 11.062" enable-background="new -33.611 -30.931 13.611 11.062"><path d="M-20-29.62c-.502.223-1.04.37-1.604.438.577-.345 1.02-.894 1.23-1.545-.54.32-1.14.553-1.774.678-.51-.542-1.233-.88-2.04-.88-1.802 0-3.126 1.682-2.718 3.43-2.32-.117-4.38-1.23-5.757-2.92-.73 1.256-.38 2.898.864 3.73-.457-.017-.89-.142-1.265-.35-.03 1.292.897 2.502 2.24 2.772-.393.106-.823.13-1.26.05.353 1.108 1.386 1.915 2.607 1.938-1.174.92-2.652 1.33-4.135 1.155 1.236.793 2.704 1.254 4.28 1.254 5.187 0 8.116-4.38 7.94-8.31.545-.388 1.018-.88 1.393-1.44z"/></svg>